<?xml version="1.0" encoding="utf-8"?>
<!-- Generator: Adobe Illustrator 25.2.0, SVG Export Plug-In . SVG Version: 6.00 Build 0)  -->
<svg version="1.1" id="Calque_1" xmlns="http://www.w3.org/2000/svg" xmlns:xlink="http://www.w3.org/1999/xlink" x="0px" y="0px"
	 viewBox="0 0 300 276" style="enable-background:new 0 0 300 276;" xml:space="preserve">
<style type="text/css">
	.st0{fill:none;stroke:#ADB784;stroke-width:2;}
	.st1{fill:none;stroke:#B7C289;stroke-width:2;}
	.st2{fill:none;stroke:#C9D68C;stroke-width:2;}
	.st3{fill:none;stroke:#808080;stroke-width:2;}
	.st4{fill:#5A6F09;}
	.st5{fill:#6E8512;}
	.st6{fill:#93AD18;}
</style>
<g>
	<path vector-effect="non-scaling-stroke" class="st0" d="M161.3,30.2c0-6.2-5.1-11.3-11.3-11.3l0,0c-6.2,0-11.3,5.1-11.3,11.3
		s5.1,11.3,11.3,11.3S161.3,36.4,161.3,30.2L161.3,30.2"/>
	<path vector-effect="non-scaling-stroke" class="st1" d="M121.3,29.4c-1.6-3-7.1-5-10.1-5.7c-0.4-0.1-0.6,0-0.8,0.4
		c-1.8,3.2-4.1,7.8-2.9,11.6c3.1,9.8,9,17.7,17.6,23.6c0.3,0.2,0.5,0.1,0.6-0.2C127.6,48.4,126.1,38.5,121.3,29.4"/>
	<path vector-effect="non-scaling-stroke" class="st1" d="M174.9,59.2c8.5-5.8,14.4-13.7,17.6-23.4c1.3-3.8-1.1-8.5-2.9-11.8
		c-0.2-0.3-0.4-0.4-0.8-0.3c-2.5,0.7-5,1.7-7.3,2.9c-1.5,0.8-2.7,2.3-3.8,4.6c-4.2,8.9-5.3,18.2-3.4,27.8c0,0.2,0.2,0.3,0.4,0.3
		C174.8,59.2,174.8,59.2,174.9,59.2"/>
	<path vector-effect="non-scaling-stroke" class="st1" d="M130,40.3c1.5,7,1.5,14,0,21.1c-0.1,0.4,0,0.6,0.4,0.8
		c3.7,1.7,7.5,3,11.4,3.7c0.4,0.1,0.7-0.1,0.6-0.5c-0.4-12.2-4.8-22.5-13.4-31.1c-0.4-0.4-0.6-0.3-0.4,0.2
		C129.1,36.5,129.6,38.4,130,40.3"/>
	<path vector-effect="non-scaling-stroke" class="st1" d="M158.1,65.9c3.9-0.7,8-2,11.6-3.8c0.3-0.2,0.4-0.4,0.3-0.7
		c-2.1-9.1-1.6-18.1,1.4-26.9c0.1-0.2,0-0.3-0.2-0.4c-0.1,0-0.2,0-0.3,0.1c-8.5,8.6-13,19-13.4,31.2C157.5,65.8,157.7,66,158.1,65.9
		"/>
	<path vector-effect="non-scaling-stroke" class="st1" d="M118.6,75.6c2.4-3,4.4-7.4,5.6-10.8c0.1-0.3,0-0.7-0.3-0.9
		c-7.8-5-13.9-11.6-18.1-19.9c-0.1-0.1-0.2-0.2-0.4-0.1c-0.1,0-0.2,0.1-0.2,0.3c0.1,12.2,4.3,22.7,12.5,31.5
		C118.1,75.9,118.3,75.9,118.6,75.6"/>
	<path vector-effect="non-scaling-stroke" class="st1" d="M182.1,75.6c8.1-8.3,12.7-19.8,12.5-31.4c0-0.7-0.2-0.8-0.5-0.1
		c-4.2,8.2-10.2,14.8-18,19.7c-0.3,0.2-0.4,0.5-0.3,0.9c1.4,3.8,3.2,7.5,5.5,10.8C181.6,75.9,181.8,75.9,182.1,75.6"/>
	<path vector-effect="non-scaling-stroke" class="st0" d="M98.9,56c0-6.2-5.1-11.3-11.3-11.3c-6.2,0-11.3,5.1-11.3,11.3l0,0
		c0,6.2,5.1,11.3,11.3,11.3l0,0C93.9,67.3,98.9,62.2,98.9,56"/>
	<path vector-effect="non-scaling-stroke" class="st0" d="M223.7,56c0-6.2-5.1-11.3-11.3-11.3l0,0c-6.2,0-11.3,5.1-11.3,11.3l0,0
		c0,6.2,5.1,11.3,11.3,11.3l0,0C218.6,67.3,223.7,62.2,223.7,56L223.7,56"/>
	<path vector-effect="non-scaling-stroke" class="st1" d="M122.2,79.6c4,3.3,9.2,6.1,14.4,7.6c0.3,0.1,0.7-0.1,0.8-0.4
		c2.4-4.9,4-10,4.7-15.4c0-0.4-0.2-0.7-0.6-0.8c-4.4-0.8-8.6-2.1-12.6-4c-0.4-0.2-0.7-0.1-0.9,0.3c-1.5,4.2-3.6,8.1-6.1,11.7
		C121.9,79,121.9,79.3,122.2,79.6"/>
	<path vector-effect="non-scaling-stroke" class="st1" d="M162.6,86.9c0.2,0.3,0.4,0.4,0.8,0.3c5.3-1.7,10.1-4.2,14.4-7.7
		c0.2-0.2,0.3-0.5,0.1-0.8c-2.6-3.6-4.7-7.5-6.2-11.7c-0.1-0.3-0.5-0.5-0.8-0.4c0,0,0,0-0.1,0c-4,1.9-8.1,3.2-12.5,4
		c-0.4,0.1-0.5,0.3-0.5,0.7C158.4,76.8,160,82,162.6,86.9"/>
	<path vector-effect="non-scaling-stroke" class="st1" d="M157.9,87.9c-2.5-5.1-4-10.4-4.8-16.1c0-0.3-0.3-0.5-0.6-0.5l-5.1,0.1
		c-0.2,0-0.4,0.2-0.4,0.4c-0.6,5.7-2.2,11-4.8,16.1c-0.2,0.4-0.1,0.6,0.3,0.6c5,1,10.1,1,15.1,0C157.9,88.5,158,88.3,157.9,87.9"/>
	<path vector-effect="non-scaling-stroke" class="st1" d="M76.6,73.7c-1.5,0-1.5,0.3-0.2,1c7.9,4.2,14.3,10.1,19.1,17.6
		c0.2,0.3,0.5,0.4,0.8,0.3c3.9-1.4,7.5-3.2,10.9-5.5c0.4-0.2,0.4-0.5,0.1-0.8C98.7,78.2,88.5,74,76.6,73.7"/>
	<path vector-effect="non-scaling-stroke" class="st1" d="M192.8,87c3.1,2.2,7.2,4.4,10.9,5.5c0.3,0.1,0.6,0,0.8-0.3
		c5-7.8,11.6-13.7,19.8-17.9c0.1-0.1,0.2-0.3,0.1-0.4c-0.1-0.1-0.2-0.2-0.3-0.2c-12.1,0.1-22.6,4.3-31.4,12.4
		C192.4,86.4,192.4,86.7,192.8,87"/>
	<path vector-effect="non-scaling-stroke" class="st1" d="M61.3,89.9c8.9,4.7,19.6,6,29.2,4.2c0.2,0,0.4-0.3,0.3-0.5
		c0-0.1,0-0.1-0.1-0.2C84.7,85,77,79.1,67.5,76c-4-1.3-8.7,0.9-12.1,2.9c-0.3,0.2-0.4,0.4-0.3,0.7C56.3,83.1,57.8,88,61.3,89.9"/>
	<path vector-effect="non-scaling-stroke" class="st1" d="M242.7,85c1-2.4,1.7-4.2,2.2-5.3c0.1-0.3,0-0.7-0.3-0.9
		c-3.1-1.6-8-4.1-11.5-3c-8.8,2.8-18.9,9.3-23.7,17.7c-0.2,0.4-0.1,0.6,0.3,0.7c8.2,1.5,16.1,0.8,23.7-1.9
		C238.2,90.5,240.8,89.6,242.7,85"/>
	<path vector-effect="non-scaling-stroke" class="st1" d="M177,102.4c2.2-5.3,4.3-9.8,8.1-14.6c0.2-0.3,0.2-0.7-0.1-1l-3.6-3.6
		c-0.2-0.2-0.5-0.3-0.8,0c-4.5,3.6-9.4,6.3-14.9,8.1c-0.4,0.1-0.4,0.3-0.2,0.6c2.9,4.2,6.4,7.7,10.6,10.7
		C176.6,102.9,176.8,102.8,177,102.4"/>
	<path vector-effect="non-scaling-stroke" class="st1" d="M114.8,87.7c3.7,4.6,6.4,9.5,8.1,14.7c0.2,0.5,0.4,0.6,0.8,0.3
		c4.1-3,7.6-6.5,10.6-10.6c0.2-0.2,0.1-0.6-0.1-0.8c0,0-0.1-0.1-0.2-0.1c-5.4-1.8-10.3-4.4-14.6-8c-0.3-0.2-0.6-0.2-0.9,0l-3.7,3.6
		C114.6,87.2,114.6,87.4,114.8,87.7"/>
	<path vector-effect="non-scaling-stroke" class="st1" d="M102.9,110.6c5.2-0.6,10.7-2.2,15.7-4.8c0.3-0.2,0.5-0.5,0.3-0.8
		c-1.7-5.2-4.3-10-7.6-14.3c-0.3-0.3-0.6-0.4-0.9-0.1c-3.6,2.6-7.5,4.6-11.7,6.1c-0.4,0.1-0.5,0.4-0.3,0.8c1.9,4,3.3,8.3,4,12.7
		C102.4,110.4,102.6,110.6,102.9,110.6"/>
	<path vector-effect="non-scaling-stroke" class="st1" d="M181.8,106c4.8,2.4,9.9,3.9,15.3,4.5c0.3,0,0.5-0.1,0.6-0.5
		c0.7-4.4,2-8.7,4-12.7c0.2-0.4,0.1-0.7-0.3-0.8c-4.2-1.5-8.1-3.6-11.8-6.2c-0.4-0.3-0.7-0.2-0.9,0.1c-3.3,4.2-5.8,8.9-7.5,13.9
		C181,105.2,181.2,105.7,181.8,106"/>
	<path vector-effect="non-scaling-stroke" class="st2" d="M124.6,129.1c5.8,3.8,10.6,8.6,14.5,14.3c0.2,0.3,0.6,0.5,1,0.4
		c6.7-1.5,13.3-1.5,20,0c0.3,0.1,0.6,0,0.8-0.3c3.7-5.7,8.5-10.4,14.1-14.2c0.3-0.2,0.5-0.5,0.4-0.9c-1.4-6.7-1.3-13.5,0-20.2
		c0.1-0.3-0.1-0.6-0.3-0.8c-5.7-3.8-10.4-8.6-14.2-14.2c-0.2-0.3-0.5-0.4-0.8-0.4c-6.7,1.4-13.4,1.4-20.1,0
		c-0.3-0.1-0.7,0.1-0.8,0.3c-3.8,5.7-8.5,10.4-14.2,14.2c-0.2,0.2-0.4,0.5-0.3,0.7c1.3,6.9,1.3,13.8-0.1,20.6
		C124.4,128.9,124.5,129,124.6,129.1"/>
	<path vector-effect="non-scaling-stroke" class="st1" d="M66.3,96.9c-0.2-0.1-0.4-0.1-0.5,0.2c0,0.1,0,0.3,0.1,0.4
		c8.6,8.5,19,12.9,31.2,13.3c0.4,0,0.6-0.2,0.5-0.6c-0.8-4-2-7.8-3.8-11.5c-0.2-0.3-0.5-0.5-0.9-0.4c-8.8,2.1-17.6,1.7-26.3-1.2
		C66.6,97,66.5,97,66.3,96.9"/>
	<path vector-effect="non-scaling-stroke" class="st1" d="M206.2,98.7c-1.8,3.7-3,7.6-3.8,11.6c-0.1,0.3,0.1,0.5,0.4,0.5
		c12.3-0.4,22.8-4.8,31.4-13.4c0.2-0.1,0.2-0.4,0-0.5c-0.1-0.1-0.3-0.2-0.5-0.1c-7.4,3.5-19,3.3-26.7,1.4
		C206.7,98.2,206.4,98.4,206.2,98.7"/>
	<path vector-effect="non-scaling-stroke" class="st0" d="M73.1,118.3c0-6.2-5.1-11.3-11.3-11.3l0,0c-6.2,0-11.3,5.1-11.3,11.3l0,0
		c0,6.2,5.1,11.3,11.3,11.3S73.1,124.6,73.1,118.3"/>
	<path vector-effect="non-scaling-stroke" class="st0" d="M249.6,118.3c0-6.3-5.1-11.3-11.3-11.3l0,0c-6.3,0-11.3,5.1-11.3,11.3
		s5.1,11.3,11.3,11.3C244.5,129.7,249.6,124.6,249.6,118.3L249.6,118.3"/>
	<path vector-effect="non-scaling-stroke" class="st1" d="M103.5,121.5c6.4,0.7,11.2,2.4,16.1,4.8c0.3,0.1,0.6,0,0.7-0.2V126
		c0.9-5.1,0.8-10.1-0.1-15.1c0-0.2-0.3-0.4-0.5-0.4h-0.1c-5,2.5-10.3,4.1-15.9,4.7c-0.4,0-0.6,0.3-0.6,0.7v5.2
		C103,121.3,103.2,121.5,103.5,121.5"/>
	<path vector-effect="non-scaling-stroke" class="st1" d="M195.5,121.6c0.4-0.1,0.8-0.1,1.1-0.3c0.2-0.1,0.4-0.2,0.4-0.5v-5.1
		c0-0.4-0.2-0.6-0.6-0.7c-5.6-0.6-10.9-2.2-16-4.7c-0.3-0.1-0.6,0-0.7,0.2c0,0.1,0,0.1-0.1,0.2c-0.6,5-0.6,10,0.1,14.9
		c0,0.4,0.3,0.5,0.6,0.3C185.2,123.9,190.2,122.4,195.5,121.6"/>
	<path vector-effect="non-scaling-stroke" class="st1" d="M97.1,125.9c-11.8,0.1-23.1,5-31.4,13.4c-0.1,0.1-0.1,0.3,0,0.4
		c0.1,0.1,0.2,0.1,0.3,0.1c8.8-3,17.8-3.4,26.9-1.3c0.4,0.1,0.7-0.1,0.9-0.4c1.7-3.7,3-7.6,3.8-11.6C97.7,126,97.5,125.9,97.1,125.9
		"/>
	<path vector-effect="non-scaling-stroke" class="st1" d="M98.5,140c4.3,1.7,8.1,3.5,11.8,6.2c0.3,0.2,0.7,0.2,1-0.1
		c3.3-4.4,5.9-9.2,7.6-14.4c0.1-0.3,0-0.7-0.3-0.8c-4.9-2.5-10.1-4.1-15.6-4.8c-0.4,0-0.6,0.1-0.7,0.5c-0.8,4.4-2.2,8.7-4.1,12.7
		C98.1,139.7,98.2,139.9,98.5,140"/>
	<path vector-effect="non-scaling-stroke" class="st1" d="M201.8,139.4c-2-4.1-3.4-8.3-4.1-12.8c-0.1-0.4-0.3-0.5-0.6-0.5
		c-5.5,0.7-10.7,2.2-15.6,4.7c-0.4,0.2-0.5,0.5-0.3,0.9c1.7,5.2,4.3,10,7.6,14.4c0.2,0.3,0.5,0.4,0.9,0.1c3.7-2.7,7.6-4.8,11.9-6.2
		C201.8,140,201.9,139.7,201.8,139.4C201.8,139.5,201.8,139.5,201.8,139.4"/>
	<path vector-effect="non-scaling-stroke" class="st1" d="M207,138.4c9.1-2,18.1-1.6,26.9,1.3c0.2,0.1,0.3,0,0.4-0.2
		c0-0.1,0-0.2-0.1-0.3c-8.6-8.5-19.1-13-31.4-13.4c-0.4,0-0.5,0.2-0.5,0.5c0.8,4.1,2,8,3.8,11.7C206.4,138.4,206.7,138.5,207,138.4"
		/>
	<path vector-effect="non-scaling-stroke" class="st1" d="M119.3,153.4c4.8-3.7,9.1-5.9,14.8-8.1c0.2-0.1,0.4-0.4,0.3-0.6
		c0,0,0-0.1-0.1-0.1c-3-4.1-6.6-7.6-10.7-10.6c-0.2-0.2-0.5-0.1-0.7,0.1c0,0,0,0.1-0.1,0.1c-1.8,5.4-4.5,10.3-8.1,14.8
		c-0.2,0.3-0.2,0.6,0.1,0.9l3.5,3.6C118.7,153.6,119,153.7,119.3,153.4"/>
	<path vector-effect="non-scaling-stroke" class="st1" d="M165.9,145.4c5.1,1.8,10,4.3,14.6,8.1c0.4,0.3,0.7,0.3,1-0.1l3.5-3.6
		c0.3-0.3,0.3-0.6,0.1-0.9c-3.5-4.5-6.3-9.5-8.1-14.9c-0.1-0.2-0.3-0.3-0.5-0.2c0,0-0.1,0-0.1,0.1c-4,3-7.6,6.6-10.7,10.6
		C165.5,144.7,165.6,145.1,165.9,145.4C165.8,145.3,165.9,145.3,165.9,145.4"/>
	<path vector-effect="non-scaling-stroke" class="st1" d="M55.5,157.9c2.4,1.3,8.4,4.1,10.5,3.4c10.1-3.1,18.3-9.1,24.7-18
		c0.1-0.2,0.1-0.5-0.1-0.6c-0.1,0-0.1-0.1-0.2-0.1c-9.5-1.8-21.1-0.7-29.7,4.4c-3.1,1.8-4.7,6.8-5.6,10.1
		C55.2,157.5,55.3,157.7,55.5,157.9"/>
	<path vector-effect="non-scaling-stroke" class="st1" d="M238.6,146.8c-8.9-4.7-19.6-6-29.3-4.1c-0.2,0-0.3,0.2-0.3,0.4
		c0,0,0,0.1,0.1,0.1c5.8,8.4,13.6,14.3,23.2,17.6c1.5,0.5,3,0.6,4.4,0.2c2.7-0.7,5.2-1.7,7.7-3.1c0.3-0.2,0.4-0.4,0.3-0.8
		C243.7,153.5,242.2,148.6,238.6,146.8"/>
	<path vector-effect="non-scaling-stroke" class="st1" d="M96.6,144c-0.4-0.2-0.7-0.1-1,0.3c-5,8-11.8,14.1-20.3,18.3
		c-0.1,0.1-0.2,0.2-0.1,0.3c0,0.1,0.1,0.1,0.2,0.1c12.3-0.1,22.9-4.2,31.8-12.4c0.4-0.3,0.4-0.9,0-1.2c-0.1-0.1-0.2-0.1-0.2-0.2
		L96.6,144"/>
	<path vector-effect="non-scaling-stroke" class="st1" d="M192.7,150.4c8.4,8.3,19.9,12.7,31.7,12.6c0.1,0,0.3-0.1,0.3-0.3
		c0-0.1-0.1-0.2-0.1-0.2c-8.3-4.2-14.9-10.2-19.9-18c-0.2-0.3-0.5-0.5-0.9-0.3c-3.8,1.3-7.5,3.1-10.9,5.4
		C192.5,149.7,192.5,150.1,192.7,150.4C192.6,150.3,192.7,150.4,192.7,150.4"/>
	<path vector-effect="non-scaling-stroke" class="st1" d="M157.9,148.5c0.2-0.3,0.1-0.5-0.3-0.5c-5.1-0.6-10.2-0.6-15.4,0.1
		c-0.2,0-0.3,0.2-0.3,0.4v0.1c2.5,5.2,4.1,10.7,4.8,16.5c0,0.3,0.2,0.4,0.5,0.4h5.2c0.3,0,0.4-0.1,0.5-0.4
		C153.8,159.2,155.4,153.7,157.9,148.5"/>
	<path vector-effect="non-scaling-stroke" class="st1" d="M122.1,157.9c2.7,4,4.3,7.7,6.3,12c0.1,0.3,0.4,0.4,0.7,0.2
		c3.9-2,8.1-3.4,12.5-4c0.4,0,0.6-0.4,0.6-0.7c-0.6-5.5-2.2-10.7-4.7-15.6c-0.2-0.3-0.5-0.5-0.9-0.4c-5.3,1.7-10.1,4.2-14.4,7.6
		C121.9,157.3,121.9,157.5,122.1,157.9"/>
	<path vector-effect="non-scaling-stroke" class="st1" d="M171.1,170.1c0.2,0.1,0.4,0,0.6-0.2c0,0,0,0,0-0.1c1.5-4.3,3.6-8.3,6.2-12
		c0.2-0.3,0.2-0.7-0.1-0.9c-4.4-3.4-9.2-5.9-14.5-7.6c-0.4-0.1-0.6,0-0.8,0.3c-2.4,4.9-4,10-4.7,15.4c-0.1,0.6,0.2,1,0.8,1
		C163,166.8,167.1,168.1,171.1,170.1"/>
	<path vector-effect="non-scaling-stroke" class="st1" d="M181.3,161.1c-2.3,3.2-4.2,7.3-5.5,10.9c-0.1,0.3,0,0.7,0.3,0.9
		c7.9,4.9,13.9,11.6,18,19.9c0.1,0.2,0.3,0.2,0.5,0.1c0.1-0.1,0.2-0.2,0.2-0.3c-0.2-12.2-4.4-22.8-12.6-31.6
		C182,160.8,181.6,160.7,181.3,161.1C181.4,161,181.3,161,181.3,161.1"/>
	<path vector-effect="non-scaling-stroke" class="st1" d="M124.3,171.6l-5.3-10.5c-0.2-0.3-0.6-0.5-0.9-0.3c-0.1,0-0.1,0.1-0.2,0.1
		c-8,8.5-12.2,18.7-12.6,30.6c-0.1,1.6,0.3,1.7,1,0.3c4.2-7.9,10.1-14.3,17.7-19C124.4,172.5,124.5,172,124.3,171.6"/>
	<path vector-effect="non-scaling-stroke" class="st0" d="M98.9,180.7c0-6.2-5.1-11.3-11.3-11.3l0,0c-6.2,0-11.3,5.1-11.3,11.3l0,0
		c0,6.2,5.1,11.3,11.3,11.3l0,0C93.8,192,98.9,186.9,98.9,180.7L98.9,180.7"/>
	<path vector-effect="non-scaling-stroke" class="st0" d="M223.7,180.7c0-6.2-5.1-11.3-11.3-11.3l0,0c-6.2,0-11.3,5.1-11.3,11.3
		s5.1,11.3,11.3,11.3S223.7,186.9,223.7,180.7L223.7,180.7"/>
	<path vector-effect="non-scaling-stroke" class="st1" d="M128.9,202.6c8.5-8.3,13.4-19.5,13.5-31.5c0-0.6-0.3-0.8-0.8-0.6
		l-11.2,3.7c-0.4,0.1-0.6,0.5-0.5,0.9c2.2,9.2,1.7,18.3-1.4,27.2c0,0.1,0,0.3,0.2,0.3C128.7,202.7,128.8,202.7,128.9,202.6"/>
	<path vector-effect="non-scaling-stroke" class="st1" d="M169.7,174.4c-3.4-1.8-8.3-3.1-11.6-3.7c-0.5-0.1-0.7,0.1-0.7,0.5
		c0.5,12.2,5,22.6,13.4,31.2c0.1,0.1,0.3,0.1,0.5,0c0.1-0.1,0.1-0.2,0.1-0.4c-3-8.8-3.5-17.7-1.3-26.8
		C170.2,175,170,174.6,169.7,174.4"/>
	<path vector-effect="non-scaling-stroke" class="st1" d="M121.9,206.2c4.3-9,5.5-18.5,3.7-28.4c0-0.2-0.2-0.3-0.4-0.3
		c0,0-0.1,0-0.1,0.1c-8.4,5.7-14.3,13.4-17.5,23.1c-1.3,4,0.9,8.8,2.9,12.2c0.2,0.3,0.4,0.4,0.8,0.3
		C115.4,211.7,119.9,210.5,121.9,206.2"/>
	<path vector-effect="non-scaling-stroke" class="st1" d="M174.2,178.1c-1.6,9.8-0.4,18.9,3.6,27.5c0.9,1.8,2,3.2,3.5,4.2
		c2.3,1.5,4.8,2.5,7.6,3.1c0.3,0.1,0.6,0,0.7-0.3c1.7-3.2,4.1-7.9,2.9-11.5c-3.2-9.9-9-17.6-17.4-23.3
		C174.6,177.4,174.3,177.5,174.2,178.1"/>
	<path vector-effect="non-scaling-stroke" class="st0" d="M161.3,206.5c0-6.2-5.1-11.3-11.3-11.3s-11.3,5.1-11.3,11.3
		s5.1,11.3,11.3,11.3S161.3,212.7,161.3,206.5L161.3,206.5"/>
	<path vector-effect="non-scaling-stroke" class="st3" d="M70.1,252.4l-2.9-8c-0.1-0.3-0.3-0.5-0.7-0.5h-2c-0.3,0-0.5,0.1-0.6,0.4
		l-2.8,8.2c-0.2,0.7-0.5,0.7-0.7,0l-2.8-8.2c-0.1-0.3-0.3-0.4-0.6-0.4h-1.9c-0.4,0-0.5,0.2-0.3,0.5l4.7,11.7
		c0.3,0.8,1.2,1.1,1.9,0.8c0.4-0.2,0.7-0.5,0.8-0.8l3.1-8.4c0.2-0.6,0.4-0.6,0.6,0l3.2,8.4c0.3,0.7,1.1,1.1,1.8,0.8
		c0.4-0.1,0.7-0.4,0.8-0.8l4.5-11.7c0.1-0.3,0-0.5-0.3-0.5h-1.5c-0.4,0-0.6,0.2-0.8,0.6l-2.7,8C70.6,253.1,70.4,253.1,70.1,252.4"/>
	<path vector-effect="non-scaling-stroke" class="st3" d="M163.1,251.6c0-0.2,0.1-0.3,0.3-0.3l0,0h8.2c0.2,0,0.3,0.1,0.3,0.3l0,0
		l-0.2,5c0,0.2,0.1,0.3,0.3,0.3l0,0h2c0.2,0,0.3-0.1,0.3-0.3l0,0v-12.5c0-0.2-0.1-0.3-0.3-0.3h-2.1c-0.2,0-0.3,0.1-0.3,0.3l0,0
		l0.3,4.4c0,0.2-0.1,0.3-0.3,0.3l0,0h-8.3c-0.2,0-0.3-0.1-0.3-0.3l0,0l0.3-4.4c0-0.2-0.1-0.3-0.3-0.3l0,0h-2.2
		c-0.2,0-0.3,0.1-0.3,0.3v12.4c0,0.2,0.1,0.3,0.3,0.3l0,0h2c0.2,0,0.3-0.1,0.3-0.3l0,0V251.6"/>
	<path vector-effect="non-scaling-stroke" class="st3" d="M127.4,247.9c0-0.2,0.1-0.3,0.3-0.4l0,0l3.8,0.1c0.2,0,0.3-0.1,0.3-0.3
		l0,0v-1c0-0.2-0.2-0.3-0.3-0.3h-10.2c-0.2,0-0.3,0.1-0.3,0.3v1.1c0,0.2,0.1,0.3,0.3,0.4l0,0l3.7-0.2c0.2,0,0.3,0.1,0.4,0.3l0,0
		l-0.1,8.9c0,0.2,0.2,0.3,0.3,0.3h1.6c0.2,0,0.3-0.2,0.3-0.3l0,0L127.4,247.9"/>
	<path vector-effect="non-scaling-stroke" class="st3" d="M83.3,252.2c1-0.1,2.3-0.1,3.8,0.1c0.3,0,0.5-0.1,0.5-0.4l0.1-0.8
		c0-0.3-0.2-0.6-0.6-0.6H87c-1.5,0.3-2.8,0.3-4,0.1c-0.8-0.1-1.4-0.8-1.4-1.6c0.1-0.8,0.8-1.4,1.6-1.4l6.1,0.1
		c0.3,0,0.5-0.2,0.5-0.5v-0.5c0-0.4-0.2-0.6-0.6-0.6l-8.7-0.1c-0.3,0-0.4,0.1-0.4,0.4v10c0,0.4,0.2,0.5,0.5,0.5l8.8,0.1
		c0.4,0,0.5-0.2,0.5-0.5v-0.6c0-0.4-0.2-0.6-0.6-0.5l-6,0.2c-0.9,0-1.6-0.7-1.7-1.6C81.8,253,82.5,252.3,83.3,252.2"/>
	<path vector-effect="non-scaling-stroke" class="st3" d="M96.1,254.2h4.8c0.4,0,0.8,0.3,0.9,0.7l0.5,1.5c0.1,0.4,0.4,0.7,0.9,0.7
		l1,0.1c0.5,0,0.7-0.2,0.5-0.7l-4.6-9.7c-0.4-0.9-1.4-1.2-2.3-0.8c-0.4,0.2-0.6,0.5-0.8,0.8l-4.4,9.7c-0.2,0.5-0.1,0.7,0.5,0.7
		l0.9-0.1c0.3,0,0.5-0.2,0.6-0.4l0.8-1.9C95.6,254.4,95.8,254.2,96.1,254.2"/>
	<path vector-effect="non-scaling-stroke" class="st3" d="M111.1,255.5c-0.2,0-0.4-0.1-0.4-0.3l0,0v-8.8c0-0.2-0.2-0.3-0.3-0.4h-1.7
		c-0.2,0-0.4,0.1-0.4,0.3l0,0v10.2c0,0.2,0.2,0.3,0.3,0.3l9.7,0.1c0.2,0,0.3-0.2,0.3-0.4l0,0v-1.1c0-0.2-0.1-0.4-0.3-0.4l0,0
		L111.1,255.5"/>
	<path vector-effect="non-scaling-stroke" class="st3" d="M137.7,252.7c0-0.2,0.2-0.4,0.4-0.4l0,0h6.4c0.2,0,0.4,0.2,0.4,0.4l0,0
		l-0.1,3.8c0,0.2,0.2,0.4,0.4,0.4l1.2,0.1c0.2,0,0.4-0.1,0.5-0.4l0,0v-10.2c0-0.2-0.2-0.4-0.4-0.4l-1.3-0.1c-0.2,0-0.4,0.2-0.4,0.4
		c0,0,0,0,0,0.1l0.4,3.8c0,0.2-0.1,0.4-0.4,0.5l0,0H138c-0.2,0-0.4-0.2-0.4-0.4l0,0l0.1-3.7c0-0.2-0.2-0.4-0.4-0.4l0,0l-1.5-0.1
		c-0.2,0-0.4,0.2-0.4,0.4l0,0v10.2c0,0.2,0.2,0.4,0.4,0.4h1.5c0.2,0,0.4-0.2,0.4-0.4l0,0L137.7,252.7"/>
	<path vector-effect="non-scaling-stroke" class="st3" d="M182.1,252.5c0-0.2,0.1-0.3,0.3-0.3l4.9,0.1c0.2,0,0.3-0.1,0.3-0.3l0,0
		v-1.1c0-0.2-0.2-0.3-0.3-0.3l0,0l-4.8,0.1c-0.2,0-0.3-0.1-0.3-0.3l0,0l-0.1-2.5c0-0.2,0.1-0.3,0.3-0.3l0,0l7.2,0.1
		c0.2,0,0.3-0.1,0.3-0.3l0,0v-0.9c0-0.2-0.1-0.3-0.3-0.3h-9.1c-0.2,0-0.3,0.1-0.3,0.3v10.3c0,0.2,0.1,0.3,0.3,0.3l9.2,0.1
		c0.2,0,0.3-0.1,0.3-0.3l0,0v-1c0-0.2-0.1-0.3-0.3-0.3l-7.2,0.1c-0.2,0-0.3-0.1-0.3-0.3l0,0L182.1,252.5"/>
	<path vector-effect="non-scaling-stroke" class="st3" d="M195.9,254.3l5.2-0.1c0.3,0,0.6,0.2,0.7,0.5l0.6,1.9
		c0.1,0.2,0.3,0.4,0.6,0.4l1.4,0.1c0.4,0,0.6-0.2,0.4-0.6l-4.6-9.7c-0.4-0.9-1.4-1.2-2.3-0.8c-0.4,0.2-0.6,0.5-0.8,0.8l-4.4,9.6
		c-0.1,0.2,0,0.5,0.2,0.6c0.1,0,0.1,0,0.2,0c1.4,0.1,2.1-0.6,2-2.1C195.1,254.6,195.5,254.3,195.9,254.3L195.9,254.3"/>
	<path vector-effect="non-scaling-stroke" class="st3" d="M211.2,255.5c-0.2,0-0.4-0.1-0.4-0.3l0,0v-8.8c0-0.2-0.1-0.4-0.3-0.4l0,0
		l-1.7-0.1c-0.2,0-0.4,0.1-0.4,0.3l0,0l0.1,10.2c0,0.2,0.2,0.3,0.3,0.3l9.6,0.1c0.2,0,0.4-0.2,0.4-0.4v-1.1c0-0.2-0.2-0.4-0.3-0.4
		l0,0L211.2,255.5"/>
	<path vector-effect="non-scaling-stroke" class="st3" d="M227.1,247.9c0-0.2,0.1-0.3,0.3-0.3l0,0l4,0.1c0.2,0,0.3-0.1,0.3-0.3l0,0
		v-1c0-0.2-0.1-0.3-0.3-0.3h-10.5c-0.2,0-0.3,0.1-0.3,0.3l-0.1,1c0,0.2,0.1,0.3,0.3,0.4l0,0l4-0.1c0.2,0,0.3,0.1,0.3,0.3l0,0
		l-0.1,8.9c0,0.2,0.1,0.3,0.3,0.3l0,0h1.4c0.2,0,0.3-0.1,0.3-0.3l0,0L227.1,247.9"/>
	<path vector-effect="non-scaling-stroke" class="st3" d="M238,250.6c-0.2,0-0.4-0.2-0.4-0.4l0.1-3.7c0-0.2-0.2-0.4-0.4-0.4
		l-1.4-0.1c-0.2,0-0.4,0.1-0.4,0.4l0,0v10.3c0,0.2,0.2,0.4,0.4,0.4l0,0l1.5-0.1c0.2,0,0.4-0.2,0.4-0.4l-0.1-3.9
		c0-0.2,0.2-0.4,0.4-0.4l0,0h6.5c0.2,0,0.4,0.2,0.4,0.4l0,0l-0.1,3.8c0,0.2,0.2,0.4,0.4,0.4l0,0h1.1c0.2,0,0.4-0.2,0.4-0.4v-10.1
		c0-0.2-0.1-0.4-0.3-0.4l-1.1-0.2c-0.2,0-0.4,0.1-0.5,0.3v0.1l0.3,3.9c0,0.2-0.1,0.4-0.4,0.4c0,0,0,0-0.1,0L238,250.6"/>
	<path vector-effect="non-scaling-stroke" class="st3" d="M96.5,252.2c-0.1,0.2,0,0.4,0.2,0.4h0.1h3.5c0.2,0,0.3-0.2,0.3-0.3v-0.1
		l-1.8-3.8c-0.1-0.2-0.3-0.2-0.4-0.2s-0.1,0.1-0.2,0.2L96.5,252.2"/>
	<path vector-effect="non-scaling-stroke" class="st3" d="M196.5,252.2c-0.1,0.2,0,0.4,0.2,0.4h0.1h3.5c0.2,0,0.3-0.2,0.3-0.3v-0.1
		l-1.8-3.8c-0.1-0.2-0.3-0.2-0.4-0.2c-0.1,0-0.1,0.1-0.2,0.2L196.5,252.2"/>
</g>
<circle class="st4" cx="150" cy="30.2" r="11.3"/>
<path class="st5" d="M111.2,23.6c3.1,0.8,8.6,2.8,10.1,5.7c4.8,9.2,6.3,19,4.3,29.5c-0.1,0.4-0.3,0.5-0.6,0.2
	c-8.6-5.9-14.5-13.7-17.6-23.6c-1.2-3.8,1.1-8.4,2.9-11.6C110.6,23.7,110.8,23.5,111.2,23.6z"/>
<path class="st5" d="M192.5,35.7c-3.2,9.7-9.1,17.6-17.6,23.4c-0.2,0.1-0.4,0.1-0.5-0.1v-0.1c-1.9-9.6-0.8-18.9,3.4-27.8
	c1.1-2.3,2.3-3.9,3.8-4.6c2.3-1.2,4.8-2.2,7.3-2.9c0.3-0.1,0.6,0,0.8,0.3C191.4,27.3,193.8,32,192.5,35.7z"/>
<path class="st5" d="M130,40.3c-0.4-1.9-0.9-3.8-1.3-5.8c-0.1-0.6,0-0.7,0.4-0.2c8.5,8.6,13,18.9,13.4,31.1c0,0.4-0.2,0.6-0.6,0.5
	c-4-0.8-7.8-2-11.4-3.7c-0.3-0.2-0.5-0.4-0.4-0.8C131.5,54.4,131.5,47.3,130,40.3z"/>
<path class="st5" d="M169.7,62.1c-3.7,1.8-7.7,3.1-11.6,3.8c-0.4,0.1-0.6-0.1-0.6-0.5c0.4-12.2,4.9-22.6,13.4-31.2
	c0.1-0.1,0.3-0.1,0.5,0c0.1,0.1,0.1,0.2,0.1,0.3c-3,8.8-3.4,17.8-1.4,26.9C170.1,61.7,170,62,169.7,62.1z"/>
<path class="st5" d="M124.2,64.7c-1.2,3.5-3.2,7.9-5.6,10.8c-0.3,0.3-0.5,0.3-0.8,0c-8.2-8.8-12.4-19.3-12.5-31.5
	c0-0.2,0.1-0.3,0.3-0.3c0.1,0,0.2,0.1,0.3,0.2c4.2,8.3,10.2,14.9,18.1,19.9C124.2,64,124.3,64.4,124.2,64.7z"/>
<path class="st5" d="M194.6,44.2c0.2,11.6-4.4,23.1-12.5,31.4c-0.3,0.3-0.6,0.3-0.8-0.1c-2.3-3.4-4.1-7-5.5-10.8
	c-0.1-0.4,0-0.7,0.3-0.9c7.8-5,13.8-11.5,18-19.7C194.5,43.4,194.6,43.5,194.6,44.2z"/>
<circle class="st4" cx="87.6" cy="56" r="11.3"/>
<circle class="st4" cx="212.4" cy="56" r="11.3"/>
<path class="st5" d="M136.7,87.2c-5.2-1.5-10.4-4.3-14.4-7.6c-0.3-0.3-0.4-0.6-0.1-0.9c2.6-3.6,4.6-7.5,6.1-11.7
	c0.2-0.4,0.4-0.6,0.9-0.3c4,1.9,8.2,3.3,12.6,4c0.4,0.1,0.6,0.4,0.6,0.8c-0.7,5.4-2.3,10.6-4.7,15.4C137.3,87.2,137,87.3,136.7,87.2
	z"/>
<path class="st5" d="M162.6,86.9c-2.6-4.9-4.2-10.1-4.8-15.6c0-0.4,0.1-0.6,0.5-0.7c4.4-0.8,8.5-2.1,12.5-4c0.3-0.1,0.7,0,0.8,0.3
	c0,0,0,0,0,0.1c1.5,4.2,3.6,8.1,6.2,11.7c0.2,0.2,0.1,0.6-0.1,0.8c-4.3,3.4-9.1,6-14.4,7.7C163,87.3,162.8,87.2,162.6,86.9z"/>
<path class="st5" d="M153,71.8c0.8,5.7,2.3,11,4.8,16.1c0.2,0.4,0.1,0.6-0.3,0.6c-5,1-10.1,1-15.1,0c-0.4-0.1-0.5-0.3-0.3-0.6
	c2.5-5.1,4.1-10.5,4.8-16.1c0-0.2,0.2-0.4,0.4-0.4l5.1-0.1C152.7,71.3,153,71.5,153,71.8z"/>
<path class="st5" d="M76.6,73.7c11.9,0.3,22.1,4.5,30.7,12.6c0.3,0.3,0.3,0.6-0.1,0.8c-3.4,2.3-7.1,4.1-10.9,5.5
	c-0.3,0.1-0.6,0-0.8-0.3c-4.8-7.6-11.2-13.5-19.1-17.6C75.1,73.9,75.2,73.6,76.6,73.7z"/>
<path class="st5" d="M203.7,92.5c-3.8-1.1-7.9-3.2-10.9-5.5c-0.4-0.3-0.4-0.6-0.1-0.9c8.8-8.1,19.3-12.3,31.4-12.4
	c0.2,0,0.3,0.1,0.3,0.3c0,0.1-0.1,0.2-0.2,0.3c-8.2,4.2-14.8,10.2-19.8,17.9C204.3,92.5,204.1,92.6,203.7,92.5z"/>
<path class="st5" d="M90.5,94c-9.7,1.8-20.4,0.5-29.2-4.2c-3.5-1.8-5-6.8-6.1-10.3c-0.1-0.3,0-0.6,0.3-0.7c3.4-2,8.1-4.2,12.1-2.9
	c9.5,3.2,17.2,9,23.2,17.4c0.1,0.2,0.1,0.5-0.1,0.6C90.6,94,90.6,94,90.5,94z"/>
<path class="st5" d="M242.7,85c-1.9,4.7-4.5,5.5-9.4,7.3c-7.6,2.7-15.5,3.3-23.7,1.9c-0.4-0.1-0.5-0.3-0.3-0.7
	c4.9-8.4,14.9-14.9,23.7-17.7c3.5-1.1,8.5,1.4,11.5,3c0.3,0.2,0.4,0.5,0.3,0.9C244.4,80.7,243.7,82.5,242.7,85z"/>
<path class="st5" d="M185.1,87.7c-3.8,4.8-5.9,9.4-8.1,14.6c-0.2,0.4-0.4,0.5-0.8,0.2c-4.1-3-7.7-6.5-10.6-10.7
	c-0.2-0.3-0.1-0.5,0.2-0.6c5.4-1.8,10.4-4.5,14.9-8.1c0.3-0.2,0.5-0.2,0.8,0l3.6,3.6C185.3,87,185.3,87.4,185.1,87.7z"/>
<path class="st5" d="M122.9,102.4c-1.7-5.1-4.4-10-8.1-14.7c-0.2-0.3-0.2-0.6,0.1-0.8l3.7-3.6c0.2-0.2,0.6-0.2,0.9,0
	c4.4,3.5,9.3,6.2,14.6,8c0.3,0.1,0.4,0.4,0.3,0.7c0,0.1,0,0.1-0.1,0.2c-3,4.1-6.5,7.6-10.6,10.6
	C123.3,102.9,123.1,102.9,122.9,102.4z"/>
<path class="st5" d="M118.6,105.8c-5,2.5-10.5,4.2-15.7,4.8c-0.3,0-0.5-0.1-0.6-0.5c-0.7-4.4-2.1-8.7-4-12.7
	c-0.2-0.4-0.1-0.7,0.3-0.8c4.2-1.5,8.1-3.6,11.7-6.1c0.4-0.2,0.7-0.2,0.9,0.1c3.4,4.3,5.9,9.1,7.6,14.3
	C119,105.3,118.9,105.6,118.6,105.8z"/>
<path class="st5" d="M181.8,106c-0.6-0.3-0.8-0.8-0.6-1.5c1.7-5.1,4.2-9.7,7.5-13.9c0.3-0.3,0.6-0.4,0.9-0.1
	c3.7,2.6,7.6,4.6,11.8,6.2c0.4,0.1,0.5,0.4,0.3,0.8c-2,4-3.3,8.2-4,12.7c-0.1,0.3-0.3,0.5-0.6,0.5
	C191.8,109.9,186.7,108.4,181.8,106z"/>
<path class="st6" d="M124.6,129.1c-0.1-0.1-0.1-0.2-0.1-0.3c1.3-6.9,1.4-13.7,0.1-20.6c-0.1-0.3,0.1-0.6,0.3-0.7
	c5.7-3.8,10.4-8.5,14.2-14.2c0.2-0.3,0.5-0.4,0.8-0.3c6.7,1.4,13.4,1.4,20.1,0c0.3-0.1,0.7,0.1,0.8,0.4c3.8,5.6,8.6,10.4,14.2,14.2
	c0.2,0.2,0.4,0.5,0.3,0.8c-1.4,6.7-1.4,13.4,0,20.2c0.1,0.4,0,0.7-0.4,0.9c-5.7,3.8-10.4,8.5-14.1,14.2c-0.2,0.3-0.5,0.4-0.8,0.3
	c-6.7-1.5-13.3-1.5-20,0c-0.4,0.1-0.8-0.1-1-0.4C135.2,137.6,130.4,132.8,124.6,129.1z"/>
<path class="st5" d="M66.6,97.1c8.7,2.9,17.5,3.3,26.3,1.2c0.4-0.1,0.7,0.1,0.9,0.4c1.7,3.7,3,7.5,3.8,11.5c0.1,0.4-0.1,0.6-0.5,0.6
	c-12.2-0.4-22.6-4.8-31.2-13.3c-0.1-0.1-0.1-0.2-0.1-0.4c0.1-0.3,0.3-0.4,0.5-0.2C66.5,97,66.6,97,66.6,97.1z"/>
<path class="st5" d="M206.2,98.7c0.2-0.3,0.6-0.5,0.9-0.4c7.6,1.9,19.2,2.1,26.7-1.4c0.2-0.1,0.4,0,0.5,0.2c0.1,0.1,0,0.3-0.1,0.4
	c-8.7,8.5-19.1,13-31.4,13.4c-0.3,0-0.5-0.2-0.4-0.5C203.2,106.3,204.4,102.4,206.2,98.7z"/>
<circle class="st4" cx="61.7" cy="118.3" r="11.3"/>
<circle class="st4" cx="238.2" cy="118.3" r="11.3"/>
<path class="st5" d="M119.5,126.3c-4.9-2.4-9.7-4.1-16.1-4.8c-0.3,0-0.5-0.2-0.5-0.6v-5.2c0-0.4,0.2-0.6,0.6-0.7
	c5.6-0.6,10.9-2.1,15.9-4.7c0.2-0.1,0.5,0,0.6,0.2v0.1c0.9,5,0.9,10.1,0.1,15.1c0,0.3-0.3,0.5-0.6,0.4
	C119.6,126.3,119.6,126.3,119.5,126.3z"/>
<path class="st5" d="M195.5,121.6c-5.3,0.8-10.3,2.3-15.2,4.5c-0.4,0.2-0.6,0-0.6-0.3c-0.6-5-0.7-10-0.1-14.9c0-0.3,0.3-0.5,0.6-0.5
	c0.1,0,0.1,0,0.2,0.1c5,2.5,10.4,4,16,4.7c0.4,0,0.6,0.3,0.6,0.7v5.1c0,0.3-0.1,0.4-0.4,0.5C196.2,121.5,195.9,121.6,195.5,121.6z"
	/>
<path class="st5" d="M65.8,139.3c8.3-8.4,19.6-13.3,31.4-13.4c0.4,0,0.5,0.2,0.4,0.5c-0.8,4-2,7.9-3.8,11.6
	c-0.2,0.4-0.5,0.5-0.9,0.4c-9.1-2.1-18.1-1.6-26.9,1.3c-0.2,0.1-0.3,0-0.4-0.2C65.6,139.5,65.7,139.3,65.8,139.3z"/>
<path class="st5" d="M110.3,146.2c-3.7-2.7-7.5-4.5-11.8-6.2c-0.3-0.1-0.4-0.4-0.3-0.7c1.9-4.1,3.3-8.3,4.1-12.7
	c0.1-0.4,0.3-0.5,0.7-0.5c5.5,0.7,10.7,2.3,15.6,4.8c0.3,0.1,0.4,0.5,0.3,0.8c-1.7,5.2-4.2,10-7.6,14.4
	C111.1,146.4,110.6,146.5,110.3,146.2z"/>
<path class="st5" d="M201.8,139.4c0.1,0.2,0,0.5-0.2,0.6c0,0,0,0-0.1,0c-4.3,1.5-8.3,3.5-11.9,6.2c-0.3,0.2-0.6,0.2-0.9-0.1
	c-3.3-4.4-5.9-9.2-7.6-14.4c-0.1-0.4,0-0.7,0.3-0.9c4.9-2.5,10.1-4.1,15.6-4.7c0.4,0,0.6,0.1,0.6,0.5
	C198.4,131.1,199.8,135.4,201.8,139.4z"/>
<path class="st5" d="M233.9,139.8c-8.8-3-17.8-3.4-26.9-1.3c-0.4,0.1-0.7-0.1-0.8-0.4c-1.8-3.7-3.1-7.6-3.8-11.7
	c-0.1-0.4,0.1-0.6,0.5-0.5c12.3,0.4,22.7,4.9,31.4,13.4c0.1,0.1,0.1,0.3,0,0.4C234.2,139.8,234,139.8,233.9,139.8z"/>
<path class="st5" d="M134.1,145.3c-5.8,2.2-10,4.5-14.8,8.1c-0.3,0.2-0.6,0.2-0.9-0.1l-3.5-3.6c-0.2-0.2-0.2-0.6-0.1-0.9
	c3.5-4.5,6.2-9.4,8.1-14.8c0.1-0.2,0.4-0.4,0.6-0.3c0,0,0.1,0,0.1,0.1c4.1,3,7.6,6.6,10.7,10.6c0.2,0.2,0.1,0.5-0.1,0.7
	C134.2,145.2,134.2,145.3,134.1,145.3z"/>
<path class="st5" d="M180.5,153.4c-4.6-3.7-9.4-6.3-14.6-8.1c-0.3-0.1-0.5-0.4-0.4-0.7c0-0.1,0-0.1,0.1-0.2c3.1-4,6.6-7.6,10.7-10.6
	c0.2-0.1,0.4-0.1,0.6,0.1c0,0,0,0.1,0.1,0.1c1.9,5.4,4.6,10.4,8.1,14.9c0.2,0.3,0.2,0.6-0.1,0.9l-3.5,3.6
	C181.2,153.7,180.9,153.7,180.5,153.4z"/>
<path class="st5" d="M66.1,161.3c-2.2,0.7-8.1-2.1-10.5-3.4c-0.3-0.1-0.4-0.4-0.3-0.7c0.9-3.3,2.5-8.3,5.6-10.1
	c8.6-5.1,20.2-6.2,29.7-4.4c0.2,0,0.4,0.3,0.3,0.5c0,0.1,0,0.1-0.1,0.2C84.4,152.2,76.2,158.2,66.1,161.3z"/>
<path class="st5" d="M209.4,142.7c9.7-1.9,20.4-0.6,29.3,4.1c3.5,1.9,5.1,6.7,6.2,10.3c0.1,0.3,0,0.6-0.3,0.8
	c-2.5,1.4-5,2.4-7.7,3.1c-1.4,0.4-2.9,0.3-4.4-0.2c-9.7-3.3-17.4-9.2-23.2-17.6C209.2,143,209.2,142.8,209.4,142.7
	C209.3,142.7,209.3,142.7,209.4,142.7z"/>
<path class="st5" d="M96.6,144l10.5,5.2c0.4,0.2,0.6,0.7,0.4,1.2c0,0.1-0.1,0.2-0.2,0.2c-8.9,8.2-19.5,12.4-31.8,12.4
	c-0.1,0-0.2-0.1-0.2-0.3c0-0.1,0.1-0.2,0.1-0.2c8.5-4.2,15.2-10.3,20.3-18.3C95.8,143.9,96.1,143.8,96.6,144z"/>
<path class="st5" d="M224.4,163c-11.7,0.1-23.2-4.3-31.7-12.6c-0.2-0.2-0.2-0.5,0-0.7c0,0,0.1,0,0.1-0.1c3.4-2.3,7-4.1,10.9-5.4
	c0.4-0.1,0.7,0,0.9,0.3c5,7.8,11.6,13.8,19.9,18c0.1,0.1,0.2,0.2,0.1,0.4C224.5,162.9,224.5,163,224.4,163z"/>
<path class="st5" d="M157.9,148.5c-2.5,5.2-4.2,10.7-4.9,16.5c0,0.3-0.2,0.4-0.5,0.4h-5.2c-0.3,0-0.5-0.1-0.5-0.4
	c-0.7-5.8-2.3-11.3-4.8-16.5c-0.1-0.2,0-0.4,0.1-0.4h0.1c5.1-0.7,10.2-0.7,15.4-0.1C158,148,158.1,148.2,157.9,148.5z"/>
<path class="st5" d="M128.4,169.8c-2-4.3-3.6-8-6.3-12c-0.2-0.3-0.2-0.6,0.1-0.8c4.3-3.4,9.1-5.9,14.4-7.6c0.3-0.1,0.7,0,0.9,0.4
	c2.5,4.9,4.1,10.1,4.7,15.6c0,0.4-0.2,0.7-0.6,0.7c-4.4,0.6-8.6,1.9-12.5,4C128.8,170.2,128.6,170.2,128.4,169.8z"/>
<path class="st5" d="M171.1,170.1c-3.9-2-8.1-3.3-12.4-4c-0.6-0.1-0.9-0.4-0.8-1c0.7-5.4,2.2-10.5,4.7-15.4c0.2-0.3,0.4-0.4,0.8-0.3
	c5.3,1.7,10.1,4.2,14.5,7.6c0.3,0.3,0.4,0.6,0.1,0.9c-2.6,3.7-4.7,7.7-6.2,12C171.6,170.1,171.3,170.2,171.1,170.1L171.1,170.1z"/>
<path class="st5" d="M175.8,172c1.3-3.6,3.2-7.7,5.5-10.9c0.2-0.3,0.6-0.3,0.8-0.1l0.1,0.1c8.2,8.9,12.4,19.4,12.6,31.6
	c0,0.2-0.2,0.3-0.3,0.3s-0.2-0.1-0.3-0.2c-4.1-8.4-10.1-15-18-19.9C175.8,172.7,175.7,172.3,175.8,172z"/>
<path class="st5" d="M119,161.1l5.3,10.5c0.2,0.4,0.1,0.9-0.3,1.1c-7.6,4.8-13.5,11.1-17.7,19c-0.7,1.4-1.1,1.3-1-0.3
	c0.4-11.8,4.6-22,12.6-30.6c0.3-0.3,0.7-0.3,0.9,0C118.9,161,118.9,161,119,161.1z"/>
<circle class="st4" cx="87.6" cy="180.7" r="11.3"/>
<circle class="st4" cx="212.4" cy="180.7" r="11.3"/>
<path class="st5" d="M142.4,171.1c0,11.9-5,23.1-13.5,31.5c-0.1,0.1-0.3,0.1-0.4,0c-0.1-0.1-0.1-0.2-0.1-0.3
	c3.1-8.9,3.6-18,1.4-27.2c-0.1-0.4,0.1-0.7,0.5-0.9l11.2-3.7C142.1,170.4,142.4,170.6,142.4,171.1z"/>
<path class="st5" d="M158.1,170.7c3.3,0.7,8.2,1.9,11.6,3.7c0.3,0.2,0.5,0.6,0.4,0.9c-2.1,9.1-1.7,18,1.3,26.8
	c0.1,0.2,0,0.4-0.2,0.4c-0.1,0-0.3,0-0.4-0.1c-8.5-8.6-13-19-13.4-31.2C157.4,170.8,157.6,170.6,158.1,170.7z"/>
<path class="st5" d="M121.9,206.2c-2,4.3-6.6,5.5-10.7,6.9c-0.3,0.1-0.6,0-0.8-0.3c-2-3.4-4.3-8.1-2.9-12.2
	c3.2-9.6,9.1-17.3,17.5-23.1c0.2-0.1,0.4-0.1,0.5,0.1c0,0,0,0.1,0.1,0.1C127.4,187.7,126.2,197.2,121.9,206.2z"/>
<path class="st5" d="M174.2,178.1c0.1-0.6,0.4-0.8,0.9-0.4c8.4,5.7,14.2,13.5,17.4,23.3c1.2,3.6-1.2,8.4-2.9,11.5
	c-0.2,0.3-0.4,0.4-0.7,0.3c-2.8-0.6-5.3-1.6-7.6-3.1c-1.5-1-2.7-2.4-3.5-4.2C173.7,197.1,172.5,187.9,174.2,178.1z"/>
<circle class="st4" cx="150" cy="206.5" r="11.3"/>
<path d="M70.8,252.4l2.7-8c0.1-0.4,0.4-0.6,0.8-0.6h1.5c0.3,0,0.5,0.2,0.3,0.5L71.6,256c-0.3,0.7-1.1,1.1-1.8,0.8
	c-0.4-0.1-0.7-0.5-0.8-0.8l-3.2-8.4c-0.2-0.6-0.4-0.6-0.6,0l-3.1,8.4c-0.3,0.8-1.1,1.1-1.9,0.9c-0.4-0.1-0.7-0.4-0.8-0.8l-4.7-11.7
	c-0.1-0.3,0-0.5,0.3-0.5h1.9c0.3,0,0.5,0.1,0.6,0.4l2.8,8.2c0.2,0.7,0.5,0.7,0.7,0l2.8-8.2c0.1-0.3,0.3-0.4,0.6-0.4h2
	c0.3,0,0.6,0.2,0.7,0.5l2.9,8C70.4,253.1,70.6,253.1,70.8,252.4z"/>
<path d="M163.1,251.6l0.2,5c0,0.2-0.1,0.3-0.3,0.3l0,0h-2c-0.2,0-0.3-0.1-0.3-0.3l0,0v-12.4c0-0.2,0.1-0.3,0.3-0.3h2.2
	c0.2,0,0.3,0.1,0.3,0.3l0,0l-0.3,4.4c0,0.2,0.1,0.3,0.3,0.3l0,0h8.3c0.2,0,0.3-0.1,0.3-0.3l0,0l-0.3-4.4c0-0.2,0.1-0.3,0.3-0.3l0,0
	h2.1c0.2,0,0.3,0.1,0.3,0.3v12.5c0,0.2-0.1,0.3-0.3,0.3l0,0h-2c-0.2,0-0.3-0.1-0.3-0.3l0,0l0.2-5c0-0.2-0.1-0.3-0.3-0.3l0,0h-8.2
	C163.2,251.3,163.1,251.4,163.1,251.6L163.1,251.6z"/>
<path d="M127.4,247.9l0.2,8.8c0,0.2-0.1,0.3-0.3,0.3l0,0h-1.6c-0.2,0-0.3-0.2-0.3-0.3l0.1-8.9c0-0.2-0.2-0.3-0.3-0.3l0,0l-3.7,0.2
	c-0.2,0-0.3-0.1-0.4-0.3l0,0v-1.1c0-0.2,0.2-0.3,0.3-0.3h10.2c0.2,0,0.3,0.2,0.3,0.3v1c0,0.2-0.2,0.3-0.3,0.3l0,0l-3.8-0.1
	C127.5,247.5,127.4,247.7,127.4,247.9L127.4,247.9z"/>
<path d="M83.3,252.2c-0.9,0.1-1.5,0.9-1.4,1.8c0.1,0.8,0.8,1.5,1.6,1.4l6-0.2c0.4,0,0.6,0.2,0.6,0.5v0.6c0,0.4-0.2,0.5-0.5,0.5
	l-8.8-0.1c-0.4,0-0.5-0.2-0.5-0.5v-10c0-0.3,0.1-0.4,0.4-0.4l8.7,0.1c0.4,0,0.6,0.2,0.6,0.6v0.5c0,0.3-0.2,0.5-0.5,0.5l-6.1-0.1
	c-0.8-0.1-1.5,0.6-1.6,1.4c-0.1,0.8,0.6,1.5,1.4,1.6c1.1,0.2,2.4,0.1,4-0.1c0.3-0.1,0.6,0.2,0.7,0.5v0.1l-0.1,0.8
	c0,0.3-0.2,0.5-0.5,0.4C85.6,252.1,84.3,252.1,83.3,252.2z"/>
<path d="M95.4,254.7l-0.8,1.9c-0.1,0.3-0.3,0.4-0.6,0.4l-0.9,0.1c-0.6,0.1-0.7-0.2-0.5-0.7l4.4-9.7c0.4-0.9,1.4-1.2,2.3-0.8
	c0.4,0.2,0.7,0.5,0.8,0.8l4.6,9.7c0.2,0.5,0.1,0.7-0.5,0.7l-1-0.1c-0.5,0-0.8-0.3-0.9-0.7l-0.5-1.5c-0.1-0.4-0.5-0.7-0.9-0.7h-4.8
	C95.8,254.2,95.6,254.4,95.4,254.7z M96.5,252.2c-0.1,0.2,0,0.4,0.2,0.4h0.1h3.5c0.2,0,0.3-0.2,0.3-0.3v-0.1l-1.8-3.8
	c-0.1-0.2-0.3-0.2-0.4-0.2s-0.1,0.1-0.2,0.2L96.5,252.2z"/>
<path d="M111.1,255.5l7.3-0.3c0.2,0,0.4,0.1,0.4,0.3l0,0v1.1c0,0.2-0.2,0.4-0.3,0.4l0,0l-9.7-0.1c-0.2,0-0.3-0.2-0.3-0.3v-10.2
	c0-0.2,0.2-0.4,0.3-0.4l0,0h1.7c0.2,0,0.3,0.2,0.3,0.4v8.8C110.8,255.3,110.9,255.5,111.1,255.5L111.1,255.5z"/>
<path d="M137.7,252.7l0.1,3.9c0,0.2-0.2,0.4-0.4,0.4l0,0h-1.5c-0.2,0-0.4-0.2-0.4-0.4v-10.2c0-0.2,0.2-0.4,0.4-0.4l0,0l1.5,0.1
	c0.2,0,0.4,0.2,0.4,0.4l0,0l-0.1,3.7c0,0.2,0.2,0.4,0.4,0.4l0,0h6.6c0.2,0,0.4-0.2,0.4-0.4l0,0l-0.4-3.8c0-0.2,0.1-0.4,0.4-0.5
	c0,0,0,0,0.1,0l1.3,0.1c0.2,0,0.4,0.2,0.4,0.4v10.2c0,0.2-0.2,0.4-0.4,0.4l0,0l-1.2-0.1c-0.2,0-0.4-0.2-0.4-0.4l0.1-3.8
	c0-0.2-0.2-0.4-0.4-0.4l0,0h-6.4C137.9,252.3,137.7,252.5,137.7,252.7L137.7,252.7z"/>
<path d="M182.1,252.5v2.7c0,0.2,0.1,0.3,0.3,0.3l0,0l7.2-0.1c0.2,0,0.3,0.1,0.3,0.3v1c0,0.2-0.1,0.3-0.3,0.3l0,0l-9.2-0.1
	c-0.2,0-0.3-0.1-0.3-0.3v-10.3c0-0.2,0.1-0.3,0.3-0.3h9.1c0.2,0,0.3,0.1,0.3,0.3v0.9c0,0.2-0.1,0.3-0.3,0.3l0,0l-7.2-0.1
	c-0.2,0-0.3,0.1-0.3,0.3l0,0l0.1,2.5c0,0.2,0.2,0.3,0.3,0.3l0,0l4.8-0.1c0.2,0,0.3,0.1,0.3,0.3l0,0v1.1c0,0.2-0.1,0.3-0.3,0.3l0,0
	l-4.9-0.1C182.2,252.1,182.1,252.3,182.1,252.5z"/>
<path d="M195.1,255c0.1,1.5-0.6,2.2-2,2.1c-0.3,0-0.5-0.3-0.5-0.5c0-0.1,0-0.1,0-0.2l4.4-9.6c0.4-0.9,1.4-1.2,2.3-0.8
	c0.4,0.2,0.7,0.5,0.8,0.8l4.6,9.7c0.2,0.4,0.1,0.6-0.4,0.6L203,257c-0.3,0-0.5-0.2-0.6-0.4l-0.6-1.9c-0.1-0.3-0.4-0.5-0.7-0.5
	l-5.2,0.1C195.5,254.3,195.1,254.6,195.1,255L195.1,255z M196.5,252.2c-0.1,0.2,0,0.4,0.2,0.4h0.1h3.5c0.2,0,0.3-0.2,0.3-0.3v-0.1
	l-1.8-3.8c-0.1-0.2-0.3-0.2-0.4-0.2c-0.1,0-0.1,0.1-0.2,0.2L196.5,252.2z"/>
<path d="M211.2,255.5l7.3-0.3c0.2,0,0.4,0.1,0.4,0.3l0,0v1.1c0,0.2-0.2,0.4-0.4,0.4l-9.6-0.1c-0.2,0-0.3-0.2-0.3-0.3l-0.1-10.2
	c0-0.2,0.2-0.4,0.3-0.4l0,0l1.7,0.1c0.2,0,0.3,0.2,0.3,0.4l0,0v8.8C210.8,255.3,210.9,255.5,211.2,255.5
	C211.1,255.5,211.1,255.5,211.2,255.5z"/>
<path d="M227.1,247.9l0.2,8.9c0,0.2-0.1,0.3-0.3,0.3l0,0h-1.4c-0.2,0-0.3-0.1-0.3-0.3l0,0l0.1-8.9c0-0.2-0.1-0.3-0.3-0.3l0,0l-4,0.1
	c-0.2,0-0.3-0.1-0.3-0.3l0,0l0.1-1c0-0.2,0.2-0.3,0.3-0.3h10.5c0.2,0,0.3,0.1,0.3,0.3v1c0,0.2-0.1,0.3-0.3,0.3l0,0l-4-0.1
	C227.3,247.5,227.1,247.7,227.1,247.9L227.1,247.9z"/>
<path d="M238,250.6l6.7,0.1c0.2,0,0.4-0.2,0.4-0.4c0,0,0,0,0-0.1l-0.3-3.9c0-0.2,0.2-0.4,0.4-0.4h0.1l1.1,0.2c0.2,0,0.3,0.2,0.3,0.4
	v10.1c0,0.2-0.2,0.4-0.4,0.4h-1.1c-0.2,0-0.4-0.2-0.4-0.4l0,0l0.1-3.8c0-0.2-0.2-0.4-0.4-0.4l0,0H238c-0.2,0-0.4,0.2-0.4,0.4l0,0
	l0.1,3.9c0,0.2-0.2,0.4-0.4,0.4l-1.5,0.1c-0.2,0-0.4-0.2-0.4-0.4l0,0v-10.3c0-0.2,0.2-0.4,0.4-0.4l0,0l1.4,0.1
	c0.2,0,0.4,0.2,0.4,0.4l-0.1,3.7C237.6,250.4,237.8,250.6,238,250.6z"/>
</svg>
